<?xml version="1.0" encoding="UTF-8" standalone="no"?>
<!-- Created with Inkscape (http://www.inkscape.org/) -->

<svg
   width="202.43709mm"
   height="70.114586mm"
   viewBox="0 0 202.43709 70.114586"
   version="1.1"
   id="svg3661"
   xml:space="preserve"
   xmlns="http://www.w3.org/2000/svg"
   xmlns:svg="http://www.w3.org/2000/svg"><defs
     id="defs3658"><rect
       x="275.63507"
       y="20.725599"
       width="460.92081"
       height="83.953773"
       id="rect5149" /></defs><g
     id="layer1"
     transform="translate(-0.56195824,-0.08901982)"><g
       style="clip-rule:evenodd;fill-rule:evenodd;image-rendering:optimizeQuality;shape-rendering:geometricPrecision;text-rendering:geometricPrecision"
       id="g4730"
       transform="matrix(0.26458333,0,0,0.26458333,0.69424991,0.22131149)"><g
         id="g4624"><path
           style="opacity:1"
           fill="#f9fbfd"
           d="m -0.5,-0.5 c 86,0 172,0 258,0 0,88.3333 0,176.667 0,265 -86,0 -172,0 -258,0 0,-88.333 0,-176.6667 0,-265 z"
           id="path4622" /></g><g
         id="g4628"><path
           style="opacity:1"
           fill="#2671d3"
           d="M 220.5,6.5 C 159.335,7.33287 98.0014,7.83287 36.5,8 31.2716,9.28404 26.2716,11.1174 21.5,13.5 26.3598,9.40829 32.0264,6.90829 38.5,6 99.1885,5.18183 159.855,5.34849 220.5,6.5 Z"
           id="path4626" /></g><g
         id="g4632"><path
           style="opacity:1"
           fill="#267dd7"
           d="m 220.5,6.5 c 14.514,3.6797 24.014,12.6797 28.5,27 0.5,64.3325 0.667,128.666 0.5,193 -0.667,-8.842 -1.333,-17.842 -2,-27 -8.846,-3.282 -17.846,-3.782 -27,-1.5 -10.267,5.938 -20.267,12.272 -30,19 -17.775,11.355 -36.775,14.021 -57,8 1.238,-0.69 1.238,-1.19 0,-1.5 10.103,-5.891 20.103,-12.057 30,-18.5 7.011,-6.508 12.678,-14.008 17,-22.5 1.922,1.211 3.755,2.544 5.5,4 2.882,-6.345 4.049,-13.012 3.5,-20 -0.167,-3.667 -0.333,-7.333 -0.5,-11 -0.583,-1.502 -1.416,-2.835 -2.5,-4 -7.529,5.592 -15.196,10.926 -23,16 3.15,1.318 5.483,3.484 7,6.5 -4.505,11.004 -12.171,18.837 -23,23.5 -4.554,-0.03 -8.054,-2.03 -10.5,-6 -0.5,-14.329 -0.667,-28.663 -0.5,-43 5.949,1.079 11.949,1.246 18,0.5 3.958,-3.908 3.958,-7.741 0,-11.5 -5.238,-1 -11.238,-1.333 -18,-1 -0.165,-3.35 0.002,-6.683 0.5,-10 9.151,-5.924 12.317,-13.924 9.5,-24 -6.659,-12.9421 -16.659,-16.4421 -30,-10.5 -4.009,3.1607 -7.009,6.994 -9,11.5 -0.819,2.805 -1.319,5.805 -1.5,9 -0.333,-0.333 -0.667,-0.667 -1,-1 -0.622,2.231 -1.789,4.065 -3.5,5.5 1.266,0.309 2.433,0.809 3.5,1.5 0.388,-0.928 1.055,-1.595 2,-2 2.669,4.168 6.169,7.501 10.5,10 0.987,3.268 1.32,6.602 1,10 -6.43,-0.333 -12.097,0 -17,1 -3.4778,3.522 -3.8112,7.356 -1,11.5 6.574,0.386 12.908,0.553 19,0.5 -0.831,14.161 -1.331,28.494 -1.5,43 -2.19,3.672 -5.357,5.672 -9.5,6 -11.3755,-5.043 -19.3755,-13.376 -24,-25 1.6768,-2.26 3.8434,-3.927 6.5,-5 0.6172,-0.949 0.4506,-1.782 -0.5,-2.5 -7.4397,-4.442 -14.6064,-9.275 -21.5,-14.5 -1.7684,2.412 -2.9351,5.079 -3.5,8 -1.8405,9.453 -1.0072,18.786 2.5,28 1.159,1.066 1.9924,0.733 2.5,-1 1.0077,-1.839 2.5077,-3.172 4.5,-4 5.1779,9.675 11.6779,18.342 19.5,26 -2.2087,1.099 -4.2087,0.599 -6,-1.5 -10.4817,-3.651 -21.1483,-4.318 -32,-2 -15.9561,6.486 -32.2895,11.653 -49,15.5 -0.16666,-61.334 0,-122.6676 0.5,-184 0.56704,-2.6677 1.06704,-5.3344 1.5,-8 1.7739,-6.7746 5.7739,-11.7746 12,-15 4.7716,-2.3826 9.7716,-4.21596 15,-5.5 61.5014,-0.16713 122.835,-0.66713 184,-1.5 z"
           id="path4630" /></g><g
         id="g4636"><path
           style="opacity:1"
           fill="#fafbfd"
           d="m 80.5,38.5 c 12.5427,5.2701 24.876,11.1034 37,17.5 1.295,3.7864 1.295,7.6197 0,11.5 -12.298,7.1346 -24.4646,14.4679 -36.5,22 -0.6667,-4.3333 -0.6667,-8.6667 0,-13 C 87.7477,71.8757 94.581,67.3757 101.5,63 94.9375,58.107 88.1042,53.607 81,49.5 80.5014,45.8484 80.3347,42.1817 80.5,38.5 Z"
           id="path4634" /></g><g
         id="g4640"><path
           style="opacity:1"
           fill="#fdfdfe"
           d="m 140.5,47.5 c 12.333,0 24.667,0 37,0 0,3.3333 0,6.6667 0,10 -12.333,0 -24.667,0 -37,0 0,-3.3333 0,-6.6667 0,-10 z"
           id="path4638" /></g><g
         id="g4644"><path
           style="opacity:1"
           fill="#015ccd"
           d="m 140.5,63.5 c 12.489,-0.9954 25.156,-1.3287 38,-1 0.317,4.2016 -0.017,8.2016 -1,12 0,-3.6667 0,-7.3333 0,-11 -12.333,0 -24.667,0 -37,0 z"
           id="path4642" /></g><g
         id="g4648"><path
           style="opacity:1"
           fill="#f6f9fc"
           d="m 140.5,63.5 c 12.333,0 24.667,0 37,0 0,3.6667 0,7.3333 0,11 -12.155,0.9952 -24.489,1.3286 -37,1 0,-4 0,-8 0,-12 z"
           id="path4646" /></g><g
         id="g4652"><path
           style="opacity:1"
           fill="#1273d5"
           d="m 9.5,28.5 c -0.43296,2.6656 -0.93296,5.3323 -1.5,8 -0.5,61.3324 -0.66666,122.666 -0.5,184 -0.66667,0 -1.33333,0 -2,0 -0.16666,-61.001 0,-122.0009 0.5,-183 0.50531,-3.365 1.67197,-6.365 3.5,-9 z"
           id="path4650" /></g><g
         id="g4656"><path
           style="opacity:1"
           fill="#fbfcfd"
           d="m 146.5,102.5 c 1.362,9.94 -2.138,17.607 -10.5,23 -0.499,3.986 -0.666,7.986 -0.5,12 6.333,0 12.667,0 19,0 3.958,3.759 3.958,7.592 0,11.5 -6.051,0.746 -12.051,0.579 -18,-0.5 -1.161,14.494 -1.328,29.161 -0.5,44 2.532,4.407 6.365,6.074 11.5,5 10.829,-4.663 18.495,-12.496 23,-23.5 -1.517,-3.016 -3.85,-5.182 -7,-6.5 7.804,-5.074 15.471,-10.408 23,-16 1.084,1.165 1.917,2.498 2.5,4 0.167,3.667 0.333,7.333 0.5,11 0.549,6.988 -0.618,13.655 -3.5,20 -1.745,-1.456 -3.578,-2.789 -5.5,-4 -4.322,8.492 -9.989,15.992 -17,22.5 -9.897,6.443 -19.897,12.609 -30,18.5 -2.124,1.674 -4.458,2.507 -7,2.5 -10.561,-6.112 -21.227,-11.945 -32,-17.5 -7.8221,-7.658 -14.3221,-16.325 -19.5,-26 -1.9923,0.828 -3.4923,2.161 -4.5,4 -1.2498,-0.077 -2.0831,-0.744 -2.5,-2 -2.1781,-8.184 -3.0114,-16.517 -2.5,-25 0.5649,-2.921 1.7316,-5.588 3.5,-8 6.8936,5.225 14.0603,10.058 21.5,14.5 0.9506,0.718 1.1172,1.551 0.5,2.5 -2.6566,1.073 -4.8232,2.74 -6.5,5 4.6245,11.624 12.6245,19.957 24,25 4.78,0.859 8.28,-0.808 10.5,-5 0.5,-14.663 0.667,-29.33 0.5,-44 -6.092,0.053 -12.426,-0.114 -19,-0.5 -2.8112,-4.144 -2.4778,-7.978 1,-11.5 6,0 12,0 18,0 0.324,-4.055 -0.009,-8.055 -1,-12 -8.426,-4.852 -12.093,-12.186 -11,-22 1.991,-4.506 4.991,-8.3393 9,-11.5 13.341,-5.9421 23.341,-2.4421 30,10.5 z"
           id="path4654" /></g><g
         id="g4660"><path
           style="opacity:1"
           fill="#2678d5"
           d="m 124.5,101.5 c 8.367,0.239 10.7,4.072 7,11.5 -7.112,2.554 -10.612,0.054 -10.5,-7.5 1.376,-1.205 2.542,-2.538 3.5,-4 z"
           id="path4658" /></g><g
         id="g4664"><path
           style="opacity:1"
           fill="#1c68d1"
           d="m 107.5,103.5 c -1.093,9.814 2.574,17.148 11,22 0.991,3.945 1.324,7.945 1,12 -6,0 -12,0 -18,0 4.903,-1 10.57,-1.333 17,-1 0.32,-3.398 -0.013,-6.732 -1,-10 -4.331,-2.499 -7.831,-5.832 -10.5,-10 -0.945,0.405 -1.612,1.072 -2,2 -1.067,-0.691 -2.234,-1.191 -3.5,-1.5 1.711,-1.435 2.878,-3.269 3.5,-5.5 0.333,0.333 0.667,0.667 1,1 0.181,-3.195 0.681,-6.195 1.5,-9 z"
           id="path4662" /></g><g
         id="g4668"><path
           style="opacity:1"
           fill="#0b5bce"
           d="m 146.5,102.5 c 2.817,10.076 -0.349,18.076 -9.5,24 -0.498,3.317 -0.665,6.65 -0.5,10 6.762,-0.333 12.762,0 18,1 -6.333,0 -12.667,0 -19,0 -0.166,-4.014 0.001,-8.014 0.5,-12 8.362,-5.393 11.862,-13.06 10.5,-23 z"
           id="path4666" /></g><g
         id="g4672"><path
           style="opacity:1"
           fill="#0452ca"
           d="m 119.5,149.5 c 0.167,14.67 0,29.337 -0.5,44 -2.22,4.192 -5.72,5.859 -10.5,5 4.143,-0.328 7.31,-2.328 9.5,-6 0.169,-14.506 0.669,-28.839 1.5,-43 z"
           id="path4670" /></g><g
         id="g4676"><path
           style="opacity:1"
           fill="#1662cf"
           d="m 65.5,159.5 c -0.5114,8.483 0.3219,16.816 2.5,25 0.4169,1.256 1.2502,1.923 2.5,2 -0.5076,1.733 -1.341,2.066 -2.5,1 -3.5072,-9.214 -4.3405,-18.547 -2.5,-28 z"
           id="path4674" /></g><g
         id="g4680"><path
           style="opacity:1"
           fill="#0356cd"
           d="m 136.5,148.5 c -0.167,14.337 0,28.671 0.5,43 2.446,3.97 5.946,5.97 10.5,6 -5.135,1.074 -8.968,-0.593 -11.5,-5 -0.828,-14.839 -0.661,-29.506 0.5,-44 z"
           id="path4678" /></g><g
         id="g4684"><path
           style="opacity:1"
           fill="#256ab8"
           d="m 249.5,226.5 c -1.768,13.413 -8.768,22.747 -21,28 -3.627,0.929 -7.293,1.763 -11,2.5 -60,0.667 -120,0.667 -180,0 -12.703,-2.88 -22.0363,-10.047 -28,-21.5 -2.49487,-4.569 -3.82821,-9.569 -4,-15 0.66667,0 1.33333,0 2,0 16.7105,-3.847 33.0439,-9.014 49,-15.5 10.8517,-2.318 21.5183,-1.651 32,2 1.7913,2.099 3.7913,2.599 6,1.5 10.773,5.555 21.439,11.388 32,17.5 2.542,0.007 4.876,-0.826 7,-2.5 1.238,0.31 1.238,0.81 0,1.5 20.225,6.021 39.225,3.355 57,-8 9.733,-6.728 19.733,-13.062 30,-19 9.154,-2.282 18.154,-1.782 27,1.5 0.667,9.158 1.333,18.158 2,27 z"
           id="path4682" /></g><g
         id="g4688"><path
           style="opacity:1"
           fill="#265cb3"
           d="m 9.5,235.5 c 5.9637,11.453 15.297,18.62 28,21.5 60,0.667 120,0.667 180,0 3.707,-0.737 7.373,-1.571 11,-2.5 -4.256,2.405 -8.923,3.905 -14,4.5 -58,0.667 -116,0.667 -174,0 -14.901,-2.087 -25.2344,-9.92 -31,-23.5 z"
           id="path4686" /></g></g><text
       xml:space="preserve"
       transform="scale(0.26458333)"
       id="text5147"
       style="font-size:42.6667px;font-family:Inter;-inkscape-font-specification:'Inter, @opsz=32.0,wght=900';font-variation-settings:'opsz' 32, 'wght' 900;white-space:pre;shape-inside:url(#rect5149);fill:#001d20;stroke-width:10.5638;stroke-linecap:round;stroke-linejoin:bevel;paint-order:markers fill stroke" /><text
       xml:space="preserve"
       style="font-size:28.4729px;font-family:Inter;-inkscape-font-specification:'Inter, @opsz=32.0,wght=900';font-variation-settings:'opsz' 32, 'wght' 900;fill:#001d20;stroke-width:7.04957;stroke-linecap:round;stroke-linejoin:bevel;paint-order:markers fill stroke"
       x="73.198349"
       y="22.445642"
       id="text5155"><tspan
         style="stroke-width:7.04953"
         x="73.198349"
         y="22.445642"
         id="tspan5207"
         dy="1.1">compose</tspan><tspan
         style="stroke-width:7.04953"
         x="73.198349"
         y="58.036766"
         id="tspan5217"
         dy="-9.6169167">action</tspan></text><text
       xml:space="preserve"
       style="font-size:11.2889px;font-family:Inter;-inkscape-font-specification:'Inter, @opsz=32.0,wght=900';font-variation-settings:'opsz' 32, 'wght' 900;fill:#001d20;stroke-width:2.79501;stroke-linecap:round;stroke-linejoin:bevel;paint-order:markers fill stroke"
       x="74.858276"
       y="62.121162"
       id="text5213"><tspan
         id="tspan5211"
         style="stroke-width:2.795"
         x="74.858276"
         y="62.121162">By hoverkraft</tspan></text></g></svg>
